<?xml version="1.0" encoding="UTF-8"?>
<!DOCTYPE svg PUBLIC "-//W3C//DTD SVG 1.1//EN" "http://www.w3.org/Graphics/SVG/1.1/DTD/svg11.dtd">
<svg xmlns="http://www.w3.org/2000/svg" xmlns:xlink="http://www.w3.org/1999/xlink" version="1.1" x="0" y="0" width="5999.999" height="2000" viewBox="0, 0, 5999.999, 2000">
  <g id="Layer_2">
    <path d="M-36,2000 L6033.999,2000 L6033.999,-10 L-36,-10 z" fill="#56B2BF"/>
  </g>
  <g id="Layer_3">
    <g>
      <g>
        <path d="M4297,398 L4777,398 L4777,808 L4297,808 L4297,398 z" fill="#955F31"/>
        <path d="M4750,425 L4750,781.518 L4701.591,781.518 L4692.454,662.623 C4709.469,648.448 4720.318,627.119 4720.318,603.235 C4720.318,560.578 4685.74,526 4643.083,526 C4600.425,526 4565.847,560.578 4565.847,603.235 C4565.847,627.119 4576.696,648.448 4593.723,662.623 L4584.574,781.518 L4322.259,781.518 L4322.259,425 L4750,425 z M4553.667,575.333 L4361.667,575.333 L4361.667,603.333 L4553.667,603.333 L4553.667,575.333 z M4554,527.333 L4362,527.333 L4362,555.333 L4554,555.333 L4554,527.333 z M4554,479 L4362,479 L4362,507 L4554,507 L4554,479 z" fill="#FED889"/>
      </g>
      <path d="M4643.083,543.823 C4675.901,543.823 4702.494,570.416 4702.494,603.235 C4702.494,636.054 4675.901,662.647 4643.083,662.647 C4610.275,662.647 4583.67,636.054 4583.67,603.235 C4583.67,570.416 4610.275,543.823 4643.083,543.823 z" fill="#BF3333"/>
      <path d="M4679.359,671.404 L4690.612,829 L4643.083,805.235 L4595.553,829 L4606.817,671.404 C4617.63,677.167 4629.976,680.471 4643.083,680.47 C4656.201,680.471 4668.546,677.167 4679.359,671.404 z" fill="#FB885E"/>
    </g>
  </g>
  <g id="Layer_1">
    <path d="M1470.239,985.9 L1429.793,985.9 C1420.128,985.9 1412.293,993.734 1412.293,1003.4 C1412.293,1013.064 1420.128,1020.9 1429.793,1020.9 L1470.239,1020.9 C1479.904,1020.9 1487.739,1013.064 1487.739,1003.4 C1487.739,993.734 1479.904,985.9 1470.239,985.9" fill="#58CAD3"/>
    <path d="M1268.011,985.9 L1227.565,985.9 C1217.9,985.9 1210.065,993.734 1210.065,1003.4 C1210.065,1013.064 1217.9,1020.9 1227.565,1020.9 L1268.011,1020.9 C1277.676,1020.9 1285.511,1013.064 1285.511,1003.4 C1285.511,993.734 1277.676,985.9 1268.011,985.9" fill="#58CAD3"/>
    <path d="M1369.125,985.9 L1328.679,985.9 C1319.014,985.9 1311.179,993.734 1311.179,1003.4 C1311.179,1013.064 1319.014,1020.9 1328.679,1020.9 L1369.125,1020.9 C1378.79,1020.9 1386.625,1013.064 1386.625,1003.4 C1386.625,993.734 1378.79,985.9 1369.125,985.9" fill="#58CAD3"/>
    <path d="M1874.696,985.9 L1834.25,985.9 C1824.585,985.9 1816.75,993.734 1816.75,1003.4 C1816.75,1013.064 1824.585,1020.9 1834.25,1020.9 L1874.696,1020.9 C1884.361,1020.9 1892.196,1013.064 1892.196,1003.4 C1892.196,993.734 1884.361,985.9 1874.696,985.9" fill="#58CAD3"/>
    <path d="M1166.896,985.9 L1126.451,985.9 C1116.786,985.9 1108.951,993.734 1108.951,1003.4 C1108.951,1013.064 1116.786,1020.9 1126.451,1020.9 L1166.896,1020.9 C1176.562,1020.9 1184.396,1013.064 1184.396,1003.4 C1184.396,993.734 1176.562,985.9 1166.896,985.9" fill="#58CAD3"/>
    <path d="M1571.354,985.9 L1530.907,985.9 C1521.243,985.9 1513.407,993.734 1513.407,1003.4 C1513.407,1013.064 1521.243,1020.9 1530.907,1020.9 L1571.354,1020.9 C1581.019,1020.9 1588.854,1013.064 1588.854,1003.4 C1588.854,993.734 1581.019,985.9 1571.354,985.9" fill="#58CAD3"/>
    <path d="M1773.582,985.9 L1733.136,985.9 C1723.471,985.9 1715.636,993.734 1715.636,1003.4 C1715.636,1013.064 1723.471,1020.9 1733.136,1020.9 L1773.582,1020.9 C1783.247,1020.9 1791.082,1013.064 1791.082,1003.4 C1791.082,993.734 1783.247,985.9 1773.582,985.9" fill="#58CAD3"/>
    <path d="M1672.468,985.9 L1632.022,985.9 C1622.357,985.9 1614.522,993.734 1614.522,1003.4 C1614.522,1013.064 1622.357,1020.9 1632.022,1020.9 L1672.468,1020.9 C1682.133,1020.9 1689.968,1013.064 1689.968,1003.4 C1689.968,993.734 1682.133,985.9 1672.468,985.9" fill="#58CAD3"/>
    <path d="M1065.782,985.9 L1025.336,985.9 C1015.671,985.9 1007.836,993.734 1007.836,1003.4 C1007.836,1013.064 1015.671,1020.9 1025.336,1020.9 L1065.782,1020.9 C1075.447,1020.9 1083.282,1013.064 1083.282,1003.4 C1083.282,993.734 1075.447,985.9 1065.782,985.9" fill="#58CAD3"/>
    <path d="M1975.811,985.9 L1935.365,985.9 C1925.7,985.9 1917.865,993.734 1917.865,1003.4 C1917.865,1013.064 1925.7,1020.9 1935.365,1020.9 L1975.811,1020.9 C1985.476,1020.9 1993.311,1013.064 1993.311,1003.4 C1993.311,993.734 1985.476,985.9 1975.811,985.9" fill="#58CAD3"/>
    <path d="M3189.182,985.9 L3148.737,985.9 C3139.072,985.9 3131.237,993.734 3131.237,1003.4 C3131.237,1013.064 3139.072,1020.9 3148.737,1020.9 L3189.182,1020.9 C3198.847,1020.9 3206.682,1013.064 3206.682,1003.4 C3206.682,993.734 3198.847,985.9 3189.182,985.9" fill="#58CAD3"/>
    <path d="M3290.296,985.9 L3249.851,985.9 C3240.186,985.9 3232.351,993.734 3232.351,1003.4 C3232.351,1013.064 3240.186,1020.9 3249.851,1020.9 L3290.296,1020.9 C3299.961,1020.9 3307.796,1013.064 3307.796,1003.4 C3307.796,993.734 3299.961,985.9 3290.296,985.9" fill="#58CAD3"/>
    <path d="M2986.953,985.9 L2946.508,985.9 C2936.843,985.9 2929.008,993.734 2929.008,1003.4 C2929.008,1013.064 2936.843,1020.9 2946.508,1020.9 L2986.953,1020.9 C2996.618,1020.9 3004.453,1013.064 3004.453,1003.4 C3004.453,993.734 2996.618,985.9 2986.953,985.9" fill="#58CAD3"/>
    <path d="M3088.067,985.9 L3047.622,985.9 C3037.957,985.9 3030.122,993.734 3030.122,1003.4 C3030.122,1013.064 3037.957,1020.9 3047.622,1020.9 L3088.067,1020.9 C3097.732,1020.9 3105.567,1013.064 3105.567,1003.4 C3105.567,993.734 3097.732,985.9 3088.067,985.9" fill="#58CAD3"/>
    <path d="M3391.41,985.9 L3350.965,985.9 C3341.3,985.9 3333.465,993.734 3333.465,1003.4 C3333.465,1013.064 3341.3,1020.9 3350.965,1020.9 L3391.41,1020.9 C3401.075,1020.9 3408.91,1013.064 3408.91,1003.4 C3408.91,993.734 3401.075,985.9 3391.41,985.9" fill="#58CAD3"/>
    <path d="M3492.524,985.9 L3452.079,985.9 C3442.414,985.9 3434.579,993.734 3434.579,1003.4 C3434.579,1013.064 3442.414,1020.9 3452.079,1020.9 L3492.524,1020.9 C3502.189,1020.9 3510.024,1013.064 3510.024,1003.4 C3510.024,993.734 3502.189,985.9 3492.524,985.9" fill="#58CAD3"/>
    <path d="M3694.753,985.9 L3654.308,985.9 C3644.643,985.9 3636.808,993.734 3636.808,1003.4 C3636.808,1013.064 3644.643,1020.9 3654.308,1020.9 L3694.753,1020.9 C3704.418,1020.9 3712.253,1013.064 3712.253,1003.4 C3712.253,993.734 3704.418,985.9 3694.753,985.9" fill="#58CAD3"/>
    <path d="M3593.639,985.9 L3553.194,985.9 C3543.529,985.9 3535.694,993.734 3535.694,1003.4 C3535.694,1013.064 3543.529,1020.9 3553.194,1020.9 L3593.639,1020.9 C3603.304,1020.9 3611.139,1013.064 3611.139,1003.4 C3611.139,993.734 3603.304,985.9 3593.639,985.9" fill="#58CAD3"/>
    <path d="M2076.925,985.9 L2036.479,985.9 C2026.814,985.9 2018.979,993.734 2018.979,1003.4 C2018.979,1013.064 2026.814,1020.9 2036.479,1020.9 L2076.925,1020.9 C2086.59,1020.9 2094.425,1013.064 2094.425,1003.4 C2094.425,993.734 2086.59,985.9 2076.925,985.9" fill="#58CAD3"/>
    <path d="M2481.382,985.9 L2440.936,985.9 C2431.271,985.9 2423.436,993.734 2423.436,1003.4 C2423.436,1013.064 2431.271,1020.9 2440.936,1020.9 L2481.382,1020.9 C2491.047,1020.9 2498.882,1013.064 2498.882,1003.4 C2498.882,993.734 2491.047,985.9 2481.382,985.9" fill="#58CAD3"/>
    <path d="M2380.268,985.9 L2339.823,985.9 C2330.157,985.9 2322.323,993.734 2322.323,1003.4 C2322.323,1013.064 2330.157,1020.9 2339.823,1020.9 L2380.268,1020.9 C2389.933,1020.9 2397.768,1013.064 2397.768,1003.4 C2397.768,993.734 2389.933,985.9 2380.268,985.9" fill="#58CAD3"/>
    <path d="M2279.153,985.9 L2238.707,985.9 C2229.042,985.9 2221.207,993.734 2221.207,1003.4 C2221.207,1013.064 2229.042,1020.9 2238.707,1020.9 L2279.153,1020.9 C2288.818,1020.9 2296.653,1013.064 2296.653,1003.4 C2296.653,993.734 2288.818,985.9 2279.153,985.9" fill="#58CAD3"/>
    <path d="M2178.039,985.9 L2137.593,985.9 C2127.928,985.9 2120.093,993.734 2120.093,1003.4 C2120.093,1013.064 2127.928,1020.9 2137.593,1020.9 L2178.039,1020.9 C2187.704,1020.9 2195.539,1013.064 2195.539,1003.4 C2195.539,993.734 2187.704,985.9 2178.039,985.9" fill="#58CAD3"/>
    <path d="M2582.496,985.9 L2542.051,985.9 C2532.386,985.9 2524.551,993.734 2524.551,1003.4 C2524.551,1013.064 2532.386,1020.9 2542.051,1020.9 L2582.496,1020.9 C2592.161,1020.9 2599.996,1013.064 2599.996,1003.4 C2599.996,993.734 2592.161,985.9 2582.496,985.9" fill="#58CAD3"/>
    <path d="M2784.725,985.9 L2744.28,985.9 C2734.615,985.9 2726.78,993.734 2726.78,1003.4 C2726.78,1013.064 2734.615,1020.9 2744.28,1020.9 L2784.725,1020.9 C2794.389,1020.9 2802.225,1013.064 2802.225,1003.4 C2802.225,993.734 2794.389,985.9 2784.725,985.9" fill="#58CAD3"/>
    <path d="M2885.839,985.9 L2845.393,985.9 C2835.728,985.9 2827.893,993.734 2827.893,1003.4 C2827.893,1013.064 2835.728,1020.9 2845.393,1020.9 L2885.839,1020.9 C2895.504,1020.9 2903.339,1013.064 2903.339,1003.4 C2903.339,993.734 2895.504,985.9 2885.839,985.9" fill="#58CAD3"/>
    <path d="M2683.61,985.9 L2643.164,985.9 C2633.499,985.9 2625.664,993.734 2625.664,1003.4 C2625.664,1013.064 2633.499,1020.9 2643.164,1020.9 L2683.61,1020.9 C2693.275,1020.9 2701.11,1013.064 2701.11,1003.4 C2701.11,993.734 2693.275,985.9 2683.61,985.9" fill="#58CAD3"/>
    <path d="M3775.422,985.9 L3755.422,985.9 C3745.757,985.9 3737.922,993.734 3737.922,1003.4 C3737.922,1013.064 3745.757,1020.9 3755.422,1020.9 L3775.422,1020.9 C3785.087,1020.9 3792.922,1013.064 3792.922,1003.4 C3792.922,993.734 3785.087,985.9 3775.422,985.9" fill="#58CAD3"/>
    <path d="M3652.723,817.061 C3645.889,810.227 3634.809,810.227 3627.975,817.061 C3621.14,823.895 3621.14,834.975 3627.975,841.809 L3789.566,1003.401 L3627.975,1164.991 C3621.14,1171.825 3621.14,1182.905 3627.975,1189.741 C3631.392,1193.157 3635.87,1194.866 3640.349,1194.866 C3644.827,1194.866 3649.306,1193.157 3652.723,1189.741 L3826.689,1015.774 C3829.971,1012.493 3831.815,1008.041 3831.815,1003.401 C3831.815,998.758 3829.971,994.307 3826.689,991.026 z" fill="#58CAD3"/>
    <path d="M4777.733,1453.307 L4294.231,1453.307 C4257.147,1453.307 4227.085,1483.376 4227.085,1520.464 L4256.542,1999.999 L4807.139,1999.999 L4844.889,1520.464 C4844.889,1483.376 4814.829,1453.307 4777.733,1453.307" fill="#FB885E"/>
    <path d="M4405.627,1473.082 C4405.627,1500.352 4444.961,1522.471 4493.491,1522.471 L4569.307,1522.471 C4617.835,1522.471 4657.172,1500.352 4657.172,1473.082 L4657.172,1453.308 L4405.627,1453.308 z" fill="#BF3333"/>
    <path d="M4803.541,1458.457 C4778.163,1458.339 4752.951,1469.231 4735.605,1490.373 C4705.023,1527.647 4710.449,1582.652 4747.725,1613.231 C4748.137,1613.572 4788.146,1647.061 4830.557,1703.769 L4844.889,1520.465 C4844.889,1492.523 4827.82,1468.572 4803.541,1458.457" fill="#BF3333"/>
    <path d="M4563.59,1343.303 L4499.207,1343.303 C4457.995,1343.303 4424.592,1362.076 4424.592,1385.248 L4424.592,1465.914 C4424.592,1489.084 4457.995,1507.862 4499.207,1507.862 L4563.59,1507.862 C4604.803,1507.862 4638.207,1489.084 4638.207,1465.914 L4638.207,1385.248 C4638.207,1362.076 4604.803,1343.303 4563.59,1343.303" fill="#FBCAA8"/>
    <path d="M4678.626,985.529 C4658.592,985.529 4602.227,963.842 4602.227,983.863 C4602.227,983.863 4632.115,1003.451 4648.61,1057.039 C4665.095,1110.629 4665.095,1204.413 4665.095,1204.413 C4665.095,1213.136 4675.047,1233.958 4685.709,1237.39 C4699.525,1241.832 4698.961,1237.498 4698.961,1226.189 L4714.883,1021.792 C4714.883,1001.764 4698.645,985.529 4678.626,985.529" fill="#BC8655"/>
    <path d="M4683.442,1136.624 C4669.495,1136.624 4639.638,1157.715 4639.638,1171.668 L4639.492,1230.433 C4639.492,1244.379 4669.495,1262.357 4683.442,1262.357 C4697.382,1262.357 4708.689,1251.053 4708.689,1237.109 L4717.073,1175.785 C4719.379,1148.859 4697.382,1136.624 4683.442,1136.624" fill="#FBCAA8"/>
    <path d="M4678.113,1165.591 C4671.491,1165.591 4658.214,1174.416 4655.137,1181.66 C4662.799,1184.186 4668.326,1191.391 4668.326,1199.893 C4668.326,1208.525 4662.629,1215.828 4654.791,1218.251 C4657.261,1225.363 4671.269,1233.389 4678.113,1233.389 C4685.633,1233.389 4691.733,1227.3 4691.733,1219.782 L4696.251,1186.703 C4697.497,1172.188 4685.633,1165.591 4678.113,1165.591" fill="#E8D3B8"/>
    <path d="M4563.59,1343.303 L4499.207,1343.303 C4457.995,1343.303 4424.592,1362.076 4424.592,1385.248 L4424.592,1422.295 C4464.393,1440.972 4513.791,1455.024 4551.073,1455.024 C4583.598,1455.024 4613.785,1446.001 4638.207,1432.801 L4638.207,1385.248 C4638.207,1362.076 4604.803,1343.303 4563.59,1343.303" fill="#F3C2A5"/>
    <path d="M4355.74,1330.045 C4355.74,1367.138 4477.213,1422.266 4551.073,1422.266 C4631.5,1422.266 4697.609,1367.138 4697.609,1330.045 L4697.609,1006.125 L4355.74,1006.125 z" fill="#FBCAA8"/>
    <path d="M4355.74,1330.045 C4355.74,1367.138 4477.213,1422.266 4551.073,1422.266 C4631.5,1422.266 4697.609,1367.138 4697.609,1330.045 L4697.609,1006.125 L4355.74,1006.125 z" fill="#FBCAA8"/>
    <path d="M4564.965,1181.639 C4564.965,1267.036 4560.7,1348.359 4552.983,1422.25 C4632.541,1421.385 4697.61,1366.841 4697.61,1330.045 L4697.61,1006.125 L4558.738,1006.125 C4562.79,1061.74 4564.965,1120.649 4564.965,1181.639" fill="#F3C2A5"/>
    <path d="M4359.962,1012.873 C4358.335,1030.662 4363.389,1050.759 4378.336,1057.976 C4410.361,1073.432 4439.764,1045.969 4512.123,1065.615 C4563.733,1079.629 4612.747,1091.869 4656.11,1086.106 C4673.654,1083.773 4687.174,1075.644 4697.609,1064.449 L4697.609,1006.125 L4360.578,1006.125 z" fill="#E1AE94"/>
    <path d="M4383.162,985.529 C4363.135,985.529 4346.905,1001.764 4346.905,1021.792 L4346.905,1215.178 C4346.905,1226.483 4362.263,1241.832 4376.077,1237.39 C4386.743,1233.958 4396.693,1213.136 4396.693,1204.413 C4396.693,1204.413 4396.693,1110.629 4413.183,1057.039 C4429.671,1003.451 4459.56,983.863 4459.56,983.863 C4459.56,963.842 4403.194,985.529 4383.162,985.529" fill="#BC8655"/>
    <path d="M4359.355,1136.624 C4345.405,1136.624 4323.419,1148.859 4325.719,1175.785 L4334.102,1237.109 C4334.102,1251.053 4345.405,1262.357 4359.355,1262.357 C4373.294,1262.357 4403.294,1244.379 4403.294,1230.433 L4403.153,1171.668 C4403.153,1157.715 4373.294,1136.624 4359.355,1136.624" fill="#FBCAA8"/>
    <path d="M4374.466,1199.892 C4374.466,1191.391 4380,1184.185 4387.648,1181.66 C4384.578,1174.415 4371.307,1165.59 4364.678,1165.59 C4357.16,1165.59 4345.299,1172.188 4346.541,1186.703 L4351.059,1219.782 C4351.059,1227.299 4357.16,1233.388 4364.678,1233.388 C4371.522,1233.388 4385.538,1225.363 4388,1218.25 C4380.161,1215.828 4374.466,1208.524 4374.466,1199.892" fill="#E1AE94"/>
    <path d="M4731.738,919.688 C4705.459,918.288 4729.208,947.022 4643.25,947.022 C4618.254,947.022 4579.154,935.84 4539.899,925.159 C4408.779,889.466 4375.802,943.215 4370.592,958.142 C4367.469,967.108 4365.812,976.609 4366.136,985.003 C4366.605,997.147 4367.284,1031.763 4396.831,1048.695 C4427.692,1066.37 4450.493,1031.828 4524.342,1044.808 C4577.016,1054.074 4626.936,1061.803 4669.593,1052.115 C4746.648,1034.62 4758.011,921.091 4731.738,919.688" fill="#9E7042"/>
    <path d="M4559.969,1238.771 C4544.927,1238.771 4532.735,1245.563 4532.735,1253.933 C4532.735,1262.308 4544.927,1269.105 4559.969,1269.105 C4575.022,1269.105 4587.213,1262.308 4587.213,1253.933 C4587.213,1245.563 4575.022,1238.771 4559.969,1238.771" fill="#E1AE94"/>
    <path d="M4563.396,1100.1 L4528.055,1254.385 C4528.055,1254.385 4582.011,1261.909 4590.113,1249.218 C4599.359,1234.753 4585.348,1204.883 4577.188,1173.361 C4567.838,1137.256 4563.396,1100.1 4563.396,1100.1" fill="#FBCAA8"/>
    <path d="M4564.933,1111.342 C4564.787,1130.773 4565.797,1155.969 4570.756,1175.141 C4578.92,1206.658 4589.194,1235.604 4579.955,1250.069 C4577.732,1253.543 4572.079,1255.5 4565.034,1256.514 C4576.462,1256.102 4586.896,1254.256 4590.113,1249.218 C4599.359,1234.753 4585.348,1204.883 4577.188,1173.361 C4570.995,1149.448 4566.954,1125.078 4564.933,1111.342" fill="#FFD9C3"/>
    <path d="M4612.856,1307.778 C4595.947,1311.934 4576.316,1314.317 4555.361,1314.317 C4534.407,1314.317 4514.77,1311.934 4497.859,1307.778 C4493.766,1311.349 4491.081,1315.337 4490.159,1319.578 C4502.146,1335.471 4526.827,1346.385 4555.361,1346.385 C4583.896,1346.385 4608.573,1335.471 4620.563,1319.578 C4619.643,1315.337 4616.955,1311.349 4612.856,1307.778" fill="#FFD9C3"/>
    <path d="M4617.175,1302.41 C4598.933,1306.562 4577.747,1308.948 4555.135,1308.948 C4532.529,1308.948 4511.343,1306.562 4493.102,1302.41 C4488.677,1305.973 4485.779,1309.959 4484.781,1314.201 C4497.724,1330.103 4524.354,1341.01 4555.135,1341.01 C4585.922,1341.01 4612.559,1330.103 4625.487,1314.201 C4624.497,1309.959 4621.592,1305.973 4617.175,1302.41" fill="#E1AE94"/>
    <path d="M4617.175,1302.41 C4598.933,1306.562 4577.747,1308.948 4555.135,1308.948 C4532.529,1308.948 4511.343,1306.562 4493.102,1302.41 C4488.737,1305.926 4485.862,1309.863 4484.836,1314.037 C4505.6,1318.645 4529.576,1321.288 4555.135,1321.288 C4580.697,1321.288 4604.678,1318.645 4625.44,1314.037 C4624.413,1309.863 4621.534,1305.926 4617.175,1302.41" fill="#FAF0E3"/>
    <path d="M4639.215,1137.801 C4630.796,1137.801 4623.971,1144.623 4623.971,1153.041 C4623.971,1161.466 4630.796,1168.289 4639.215,1168.289 C4647.633,1168.289 4654.458,1161.466 4654.458,1153.041 C4654.458,1144.623 4647.633,1137.801 4639.215,1137.801" fill="#BC8655"/>
    <path d="M4657.145,1108.778 L4617.116,1108.778 C4613.15,1108.778 4609.937,1111.994 4609.937,1115.954 C4609.937,1119.917 4613.15,1123.13 4617.116,1123.13 L4657.145,1123.13 C4661.109,1123.13 4664.321,1119.917 4664.321,1115.954 C4664.321,1111.994 4661.109,1108.778 4657.145,1108.778" fill="#E1AE94"/>
    <path d="M4478.319,1137.801 C4469.899,1137.801 4463.076,1144.623 4463.076,1153.041 C4463.076,1161.466 4469.899,1168.289 4478.319,1168.289 C4486.738,1168.289 4493.562,1161.466 4493.562,1153.041 C4493.562,1144.623 4486.738,1137.801 4478.319,1137.801" fill="#BC8655"/>
    <path d="M4496.25,1108.778 L4456.219,1108.778 C4452.254,1108.778 4449.041,1111.994 4449.041,1115.954 C4449.041,1119.917 4452.254,1123.13 4456.219,1123.13 L4496.25,1123.13 C4500.214,1123.13 4503.426,1119.917 4503.426,1115.954 C4503.426,1111.994 4500.214,1108.778 4496.25,1108.778" fill="#E1AE94"/>
    <path d="M4248.666,844.332 C4248.966,846.861 4244.187,897.992 4244.187,897.992 C4244.187,897.992 4312.983,873.778 4337.104,845.298 C4361.223,816.814 4361.926,790.497 4361.926,790.497 L4286.521,770.051 C4286.521,770.051 4248.362,841.806 4248.666,844.332" fill="#F3C2A5"/>
    <path d="M4349.68,604.171 L4289.442,635.724 C4281.667,639.795 4278.662,649.395 4282.74,657.164 C4286.812,664.943 4296.41,667.934 4304.182,663.87 L4364.42,632.323 C4372.196,628.253 4375.202,618.65 4371.121,610.875 C4367.056,603.103 4357.451,600.1 4349.68,604.171" fill="#F3C2A5"/>
    <path d="M4302.716,637.16 C4294.957,633.069 4285.345,636.041 4281.254,643.8 L4249.537,703.945 C4245.447,711.716 4248.414,721.329 4256.184,725.417 C4263.945,729.51 4273.551,726.526 4277.643,718.771 L4309.356,658.623 C4313.455,650.859 4310.484,641.257 4302.716,637.16" fill="#F3C2A5"/>
    <path d="M4328.286,666.64 L4238.565,704.302 L4142.841,915.274 L4232.855,969.81 L4263.93,891.79 C4263.93,891.79 4283.671,888.908 4302.945,836.499 C4315.321,802.845 4313.394,786.046 4313.394,786.046 L4277.292,728.142 L4336.816,696.756 z" fill="#FBCAA8"/>
    <path d="M4403.117,670.186 L4335.304,665.173 C4326.554,664.521 4318.933,671.088 4318.288,679.847 C4317.637,688.603 4324.21,696.212 4332.959,696.864 L4400.78,701.871 C4409.525,702.514 4417.141,695.948 4417.792,687.191 C4418.439,678.446 4411.867,670.831 4403.117,670.186" fill="#FBCAA8"/>
    <path d="M4406.771,708.264 L4338.952,703.259 C4330.2,702.611 4322.583,709.176 4321.934,717.932 C4321.287,726.687 4327.86,734.297 4336.609,734.949 L4404.423,739.955 C4413.177,740.606 4420.794,734.042 4421.436,725.282 C4422.085,716.531 4415.518,708.915 4406.771,708.264" fill="#FBCAA8"/>
    <path d="M4388.299,744.82 L4333.345,740.774 C4324.595,740.132 4316.977,746.698 4316.33,755.456 C4315.684,764.21 4322.252,771.82 4331,772.476 L4385.954,776.5 C4394.706,777.152 4402.323,770.577 4402.972,761.822 C4403.617,753.076 4397.049,745.462 4388.299,744.82" fill="#FBCAA8"/>
    <path d="M4249.511,715.097 L4268.274,757.59 L4347.052,730.83 L4337.108,703.278 z" fill="#FBCAA8"/>
    <path d="M4247.183,752.776 L4286.005,817.015 L4342.446,766.966 L4331.739,740.665 z" fill="#FBCAA8"/>
    <path d="M4403.505,673.51 L4394.506,673.238 C4389.839,673.089 4389.274,691.917 4393.937,692.064 L4402.939,692.328 C4407.61,692.465 4411.525,688.368 4411.676,683.171 C4411.836,677.974 4408.18,673.634 4403.505,673.51" fill="#FFD9C3"/>
    <path d="M4351.968,607.228 L4344.037,611.488 C4339.921,613.7 4348.84,630.291 4352.954,628.082 L4360.883,623.813 C4364.997,621.599 4366.337,616.094 4363.875,611.515 C4361.414,606.934 4356.078,605.006 4351.968,607.228" fill="#FBCAA8"/>
    <path d="M4405.141,711.469 L4396.142,711.194 C4391.473,711.053 4390.909,729.879 4395.571,730.022 L4404.576,730.291 C4409.243,730.429 4413.158,726.326 4413.312,721.129 C4413.47,715.932 4409.812,711.594 4405.141,711.469" fill="#FFD9C3"/>
    <path d="M4389.201,749.011 L4380.202,748.733 C4375.534,748.591 4374.97,767.417 4379.633,767.559 L4388.639,767.825 C4393.306,767.966 4397.219,763.863 4397.374,758.665 C4397.533,753.472 4393.874,749.13 4389.201,749.011" fill="#FFD9C3"/>
    <path d="M4287.693,642.437 C4287.29,641.783 4286.428,641.57 4285.772,641.979 C4285.117,642.373 4284.909,643.236 4285.31,643.895 L4296.029,661.459 C4296.43,662.108 4297.288,662.322 4297.946,661.919 C4298.599,661.514 4298.809,660.661 4298.41,660.002 z" fill="#FBCAA8"/>
    <path d="M4293.535,639.113 C4293.13,638.456 4292.272,638.242 4291.617,638.654 C4290.958,639.049 4290.749,639.905 4291.153,640.571 L4297.771,651.435 C4298.171,652.084 4299.03,652.294 4299.686,651.89 C4300.343,651.484 4300.55,650.632 4300.152,649.976 z" fill="#FBCAA8"/>
    <path d="M4333.717,670.391 C4332.952,670.38 4332.321,671.005 4332.314,671.774 L4332.211,684.494 C4332.207,685.262 4332.824,685.893 4333.596,685.904 C4334.37,685.902 4334.993,685.28 4335.004,684.514 L4335.105,671.797 C4335.107,671.019 4334.494,670.389 4333.717,670.391" fill="#FFD9C3"/>
    <path d="M4333.186,708.572 C4332.416,708.557 4331.786,709.181 4331.779,709.951 L4331.679,722.672 C4331.672,723.442 4332.291,724.068 4333.062,724.079 C4333.836,724.08 4334.456,723.454 4334.466,722.694 L4334.57,709.974 C4334.575,709.201 4333.956,708.565 4333.186,708.572" fill="#FFD9C3"/>
    <g>
      <path d="M4818.989,769.68 L4743.212,788.691 C4743.212,788.691 4743.412,815.017 4766.991,843.954 C4790.563,872.886 4858.886,898.401 4858.886,898.401 C4858.886,898.401 4855.079,847.188 4855.43,844.666 C4855.781,842.146 4818.989,769.68 4818.989,769.68" fill="#F3C2A5"/>
      <path d="M4818.617,635.322 L4758.988,602.631 C4751.302,598.413 4741.642,601.234 4737.423,608.927 C4733.197,616.623 4736.021,626.281 4743.718,630.499 L4803.346,663.182 C4811.038,667.393 4820.696,664.586 4824.91,656.884 C4829.133,649.195 4826.314,639.54 4818.617,635.322" fill="#F3C2A5"/>
      <path d="M4826.651,643.552 C4822.708,635.715 4813.154,632.563 4805.319,636.506 C4797.478,640.455 4794.319,649.998 4798.27,657.839 L4828.841,718.577 C4832.781,726.409 4842.327,729.574 4850.166,725.63 C4858.012,721.689 4861.166,712.135 4857.223,704.287 z" fill="#F3C2A5"/>
      <path d="M4779.193,665.495 L4770.096,695.444 L4829.01,727.953 L4791.818,785.162 C4791.818,785.162 4789.57,801.921 4801.309,835.804 C4819.583,888.569 4839.269,891.825 4839.269,891.825 L4872.396,962.482 L4972.104,915.301 L4868.182,704.852 z" fill="#FBCAA8"/>
      <path d="M4772.205,663.895 L4704.307,667.62 C4695.55,668.099 4688.836,675.589 4689.316,684.344 C4689.794,693.111 4697.291,699.821 4706.045,699.344 L4773.945,695.624 C4782.705,695.139 4789.423,687.656 4788.942,678.89 C4788.458,670.119 4780.964,663.41 4772.205,663.895" fill="#FBCAA8"/>
      <path d="M4767.838,701.904 L4699.932,705.621 C4691.177,706.108 4684.465,713.597 4684.951,722.36 C4685.424,731.129 4692.919,737.837 4701.679,737.351 L4769.575,733.633 C4778.334,733.148 4785.057,725.664 4784.573,716.899 C4784.088,708.131 4776.599,701.423 4767.838,701.904" fill="#FBCAA8"/>
      <path d="M4772.726,739.519 L4717.705,742.522 C4708.947,742.998 4702.234,750.486 4702.715,759.242 C4703.199,768.008 4710.688,774.726 4719.452,774.24 L4774.47,771.26 C4783.229,770.769 4789.943,763.286 4789.461,754.521 C4788.983,745.753 4781.489,739.043 4772.726,739.519" fill="#FBCAA8"/>
      <path d="M4759.212,729.317 L4837.469,757.567 L4857.038,715.437 L4769.677,701.959 z" fill="#FBCAA8"/>
      <path d="M4763.132,765.534 L4818.613,816.645 L4858.645,753.154 L4774.333,739.44 z" fill="#FBCAA8"/>
      <path d="M4712.86,670.836 L4703.856,670.937 C4699.187,670.973 4695.447,675.242 4695.501,680.441 C4695.556,685.64 4699.397,689.811 4704.063,689.762 L4713.07,689.669 C4717.734,689.61 4717.53,670.776 4712.86,670.836" fill="#FFD9C3"/>
      <path d="M4764.493,610.054 L4756.645,605.645 C4752.58,603.345 4747.206,605.171 4744.657,609.705 C4742.106,614.235 4743.344,619.766 4747.414,622.056 L4755.258,626.475 C4759.332,628.761 4768.563,612.344 4764.493,610.054" fill="#FBCAA8"/>
      <path d="M4710.507,708.754 L4701.501,708.858 C4696.828,708.894 4693.088,713.162 4693.153,718.361 C4693.208,723.56 4697.043,727.737 4701.709,727.687 L4710.716,727.589 C4715.385,727.534 4715.173,708.701 4710.507,708.754" fill="#FFD9C3"/>
      <path d="M4725.725,746.588 L4716.725,746.696 C4712.049,746.726 4708.312,750.998 4708.37,756.193 C4708.425,761.393 4712.265,765.569 4716.933,765.518 L4725.941,765.422 C4730.604,765.367 4730.397,746.535 4725.725,746.588" fill="#FFD9C3"/>
      <path d="M4822.165,641.644 C4821.519,641.223 4820.655,641.42 4820.24,642.066 L4809.188,659.424 C4808.776,660.076 4808.97,660.933 4809.623,661.352 C4810.269,661.767 4811.133,661.569 4811.544,660.927 L4822.593,643.569 C4823.005,642.918 4822.818,642.051 4822.165,641.644" fill="#FBCAA8"/>
      <path d="M4816.39,638.21 C4815.739,637.785 4814.877,637.983 4814.46,638.632 L4807.639,649.368 C4807.228,650.015 4807.419,650.872 4808.067,651.29 C4808.716,651.706 4809.582,651.514 4809.992,650.872 L4816.812,640.135 C4817.231,639.477 4817.039,638.617 4816.39,638.21" fill="#FBCAA8"/>
      <path d="M4775.071,670.552 C4775.073,669.782 4774.458,669.146 4773.688,669.143 C4772.915,669.125 4772.289,669.743 4772.278,670.522 L4772.143,683.238 C4772.137,684.005 4772.744,684.638 4773.518,684.655 C4774.288,684.658 4774.919,684.038 4774.929,683.272 z" fill="#FFD9C3"/>
      <path d="M4774.877,708.732 C4774.883,707.961 4774.266,707.326 4773.501,707.327 C4772.729,707.305 4772.099,707.928 4772.091,708.702 L4771.95,721.421 C4771.946,722.181 4772.558,722.82 4773.332,722.834 C4774.101,722.837 4774.73,722.222 4774.739,721.451 z" fill="#FFD9C3"/>
      <path d="M5019.426,905.839 C4994.22,872.306 4968.751,843.804 4949.443,823.553 L4839.685,962.014 C4852.551,976.361 4867.146,993.674 4881.469,1012.896 C4926.175,1072.882 4950.706,1128.509 4948.769,1165.526 C4943.436,1267.651 4891.459,1354.585 4848.792,1409.535 C4801.913,1469.91 4756.514,1505.221 4756.07,1505.568 C4717.731,1534.802 4710.353,1589.579 4739.592,1627.917 C4757.864,1651.879 4764.02,1666.579 4792.042,1666.49 C4821.198,1666.41 4847.571,1655.357 4861.94,1644.393 C4872.006,1636.721 5108.572,1453.242 5123.132,1174.645 C5127.367,1093.46 5092.482,1003.02 5019.426,905.839" fill="#FB885E"/>
    </g>
    <path d="M4250.369,1408.642 C4208.753,1352.892 4158.434,1264.989 4155.041,1162.781 C4153.803,1125.732 4179.386,1070.583 4225.223,1011.456 C4239.91,992.508 4254.829,975.476 4267.966,961.373 L4160.854,820.854 C4141.165,840.736 4115.161,868.748 4089.322,901.8 C4014.437,997.576 3977.839,1087.337 3980.534,1168.59 C3989.806,1447.411 4222.849,1635.349 4232.765,1643.209 C4246.925,1654.445 4273.085,1665.993 4302.233,1666.628 C4330.248,1667.249 4336.681,1652.668 4355.405,1629.057 C4385.366,1591.281 4379.029,1536.374 4341.251,1506.419 C4340.815,1506.062 4296.095,1469.895 4250.369,1408.642" fill="#FB885E"/>
    <path d="M2068.053,741.891 C1923.627,741.891 1806.541,858.969 1806.541,1003.401 C1806.541,1147.827 1923.627,1264.911 2068.053,1264.911 C2212.481,1264.911 2329.561,1147.827 2329.561,1003.401 C2329.565,858.969 2212.481,741.891 2068.053,741.891" fill="#58CAD3"/>
    <path d="M2098.137,1041.568 C2077.233,1055.26 2049.17,1049.409 2035.479,1028.51 C2021.785,1007.602 2027.631,979.54 2048.533,965.842 C2069.444,952.149 2097.5,958.001 2111.194,978.907 C2124.889,999.803 2119.043,1027.868 2098.137,1041.568 M2183.85,968.358 L2211.522,950.524 C2207.815,940.917 2203.053,931.549 2197.176,922.573 C2191.27,913.569 2184.543,905.417 2177.176,898.153 L2147.78,914.706 C2141.162,909.171 2134.012,904.448 2126.491,900.579 L2133.448,868.405 C2114.16,859.852 2093.217,855.497 2072.119,855.653 L2063.039,888.143 C2054.61,888.885 2046.215,890.557 2037.994,893.186 L2020.162,865.518 C2010.551,869.221 2001.18,873.991 1992.211,879.866 C1983.201,885.764 1975.051,892.495 1967.789,899.864 L1984.336,929.264 C1978.801,935.872 1974.08,943.022 1970.207,950.553 L1938.037,943.587 C1929.492,962.881 1925.139,983.821 1925.288,1004.915 L1957.772,1013.993 C1958.512,1022.424 1960.184,1030.817 1962.819,1039.047 L1935.157,1056.875 C1938.866,1066.483 1943.625,1075.864 1949.498,1084.827 C1955.401,1093.838 1962.125,1101.989 1969.498,1109.245 L1998.889,1092.702 C2005.504,1098.239 2012.655,1102.958 2020.184,1106.833 L2013.229,1138.997 C2032.516,1147.54 2053.453,1151.899 2074.553,1151.745 L2083.629,1119.264 C2092.059,1118.52 2100.459,1116.846 2108.68,1114.223 L2126.508,1141.883 C2136.117,1138.174 2145.496,1133.417 2154.457,1127.544 C2163.471,1121.633 2171.617,1114.911 2178.887,1107.536 L2162.336,1078.143 C2167.871,1071.53 2172.59,1064.379 2176.463,1056.852 L2208.637,1063.809 C2217.176,1044.53 2221.539,1023.579 2221.387,1002.483 L2188.895,993.403 C2188.153,984.975 2186.481,976.583 2183.85,968.358" fill="#D0E9F2"/>
    <path d="M1241.264,741.891 C1096.836,741.891 979.754,858.969 979.754,1003.399 C979.753,1147.825 1096.836,1264.911 1241.262,1264.911 C1385.691,1264.909 1502.773,1147.827 1502.773,1003.399 C1502.773,858.969 1385.691,741.891 1241.264,741.891" fill="#58CAD3"/>
    <path d="M1295.086,863.281 C1267.554,865.136 1244.903,882.722 1235.135,906.683 C1248.315,892.73 1266.538,883.418 1287.204,882.052 C1325.898,879.476 1359.858,905.289 1368.893,941.648 C1369.448,937.289 1369.629,932.81 1369.307,928.263 C1366.745,889.832 1333.506,860.726 1295.086,863.281" fill="#D0E9F2"/>
    <path d="M1305.56,1026.16 C1255.888,1029.457 1212.945,991.877 1209.634,942.207 C1206.337,892.521 1243.935,849.574 1293.586,846.279 C1343.271,842.969 1386.22,880.566 1389.528,930.236 C1392.823,979.914 1355.245,1022.849 1305.56,1026.16 M1292.262,826.291 C1231.548,830.338 1185.628,882.814 1189.663,943.531 C1191.379,969.625 1202.104,992.935 1218.545,1010.775 L1201.468,1030.293 C1188.467,1024.615 1172.835,1027.513 1162.996,1038.748 L1097.028,1114.115 C1084.892,1127.998 1086.292,1149.074 1100.173,1161.24 C1114.046,1173.373 1135.15,1171.976 1147.284,1158.092 L1213.222,1082.728 C1223.077,1071.508 1223.872,1055.605 1216.53,1043.486 L1233.415,1024.217 C1253.789,1039.543 1279.468,1047.97 1306.895,1046.135 C1367.598,1042.105 1413.546,989.625 1409.518,928.912 C1405.458,868.195 1352.978,822.262 1292.262,826.291" fill="#D0E9F2"/>
    <path d="M2894.84,741.891 C2750.414,741.891 2633.328,858.971 2633.328,1003.399 C2633.328,1147.83 2750.414,1264.911 2894.84,1264.911 C3039.27,1264.911 3156.348,1147.83 3156.348,1003.395 C3156.348,858.971 3039.27,741.891 2894.84,741.891" fill="#58CAD3"/>
    <path d="M2897.639,885.928 L2785.92,885.928 C2768.285,885.928 2754.008,900.219 2754.008,917.842 L2754.008,991.235 C2754.008,1008.871 2768.285,1023.164 2785.92,1023.164 L2789.112,1023.164 L2789.112,1075.815 L2824.215,1040.703 L2824.215,952.94 C2824.215,933.561 2839.946,917.842 2859.317,917.842 L2929.541,917.842 C2929.541,900.219 2915.252,885.928 2897.639,885.928" fill="#D0E9F2"/>
    <path d="M2999.764,988.057 L2876.883,988.057 L2876.883,970.498 L2999.764,970.498 z M2999.764,1023.164 L2876.883,1023.164 L2876.883,1005.605 L2999.764,1005.605 z M2947.092,1058.268 L2876.883,1058.268 L2876.883,1040.704 L2947.092,1040.704 z M2999.764,935.389 L2876.883,935.389 C2857.496,935.389 2841.762,951.125 2841.762,970.498 L2841.762,1058.268 C2841.762,1077.641 2857.496,1093.361 2876.883,1093.361 L2911.986,1093.361 L2911.986,1146.016 L2964.645,1093.361 L2999.764,1093.361 C3019.154,1093.361 3034.863,1077.641 3034.863,1058.268 L3034.863,970.498 C3034.863,951.125 3019.154,935.389 2999.764,935.389" fill="#D0E9F2"/>
  </g>
</svg>
